<?xml version="1.0" encoding="UTF-8"?>
<svg version="1.1" xmlns="http://www.w3.org/2000/svg" width="174" height="174">
<path d="M0 0 C0.09303993 9.08447396 0.16393619 18.16878169 0.20724869 27.25362968 C0.22804578 31.47296967 0.25621744 35.69198158 0.30175781 39.91113281 C0.34549932 43.98955597 0.36919622 48.0676653 0.37950897 52.14630508 C0.38684995 53.69551655 0.40118416 55.24471254 0.42292023 56.79378891 C0.59390044 69.49436044 -1.26477065 79.28022442 -10 89 C-17.10508792 96.2221129 -24.95430143 100.0240772 -35.125 100.3125 C-44.5148587 100.22379688 -53.34816416 96.59816081 -60.03125 89.9921875 C-66.53828122 83.03720848 -69.40590637 77.54110341 -69.10546875 67.94140625 C-69.05326172 66.98041016 -69.05326172 66.98041016 -69 66 C-66.06097651 65.86518241 -63.12810441 65.76600584 -60.1875 65.6875 C-59.35412109 65.64560547 -58.52074219 65.60371094 -57.66210938 65.56054688 C-55.34271608 65.51397271 -53.27214226 65.52637358 -51 66 C-49.00390625 68.35546875 -49.00390625 68.35546875 -48 71 C-46.08926956 75.01253393 -44.28904125 76.97996352 -40.03125 78.55859375 C-34.91555507 79.67027361 -30.48264383 78.91482279 -26.0625 76.1875 C-22.71729637 72.63955676 -21.75612906 69.89634575 -21.68115234 65.04785156 C-21.66128265 64.06713684 -21.64141296 63.08642212 -21.62094116 62.07598877 C-21.60361435 60.4992337 -21.60361435 60.4992337 -21.5859375 58.890625 C-21.56657135 57.80867859 -21.5472052 56.72673218 -21.5272522 55.61199951 C-21.46749763 52.15807974 -21.42108703 48.70412656 -21.375 45.25 C-21.33681647 42.90753759 -21.29776452 40.56508916 -21.2578125 38.22265625 C-21.16179927 32.48188447 -21.07775256 26.74104697 -21 21 C-27.6 21 -34.2 21 -41 21 C-42.77427278 15.67718167 -43.14213539 12.46183727 -42.625 7.125 C-42.56828125 6.43664063 -42.5115625 5.74828125 -42.453125 5.0390625 C-42.31307172 3.35842311 -42.15807755 1.67903995 -42 0 C-13.31873397 -1.72890301 -13.31873397 -1.72890301 0 0 Z " fill="#3E2E58" transform="translate(69,37)"/>
<path d="M0 0 C0 33 0 66 0 100 C-7.31953577 98.95435203 -10.96423284 97.49196684 -15.75 92.0625 C-19.54871422 86.89202787 -20.30960603 82.60686703 -20.4140625 76.28515625 C-20.43342865 75.5517955 -20.4527948 74.81843475 -20.4727478 74.06285095 C-20.53222011 71.72951704 -20.57871793 69.39612891 -20.625 67.0625 C-20.66322506 65.49802619 -20.70227936 63.93357241 -20.7421875 62.36914062 C-20.89282272 56.24570912 -21.02264636 50.12583966 -21 44 C-23.83262179 44 -24.78572508 45.54641814 -26.70765686 47.45541382 C-27.19729416 47.95223663 -27.68693146 48.44905945 -28.19140625 48.9609375 C-28.69671371 49.46670319 -29.20202118 49.97246887 -29.72264099 50.49356079 C-30.79166831 51.56561289 -31.8582604 52.64009797 -32.92260742 53.71679688 C-34.55404189 55.36644745 -36.1932961 57.00799553 -37.83398438 58.6484375 C-38.87026423 59.68963405 -39.90608699 60.73128578 -40.94140625 61.7734375 C-41.67889854 62.51259903 -41.67889854 62.51259903 -42.43128967 63.26669312 C-45.04074713 65.88975028 -45.04074713 65.88975028 -47 69 C-51.95302218 68.61063994 -54.50355043 66.10247733 -57.8125 62.6875 C-58.31458984 62.20087891 -58.81667969 61.71425781 -59.33398438 61.21289062 C-62.32549619 58.18881813 -63 57.43001812 -63 53 C-61.56352234 51.38821411 -61.56352234 51.38821411 -59.55737305 49.80126953 C-54.78099775 45.85430584 -50.44651016 41.57326162 -46.08203125 37.1796875 C-45.26175949 36.35800079 -44.44148773 35.53631409 -43.59635925 34.68972778 C-40.9993602 32.08717849 -38.40587159 29.48116347 -35.8125 26.875 C-34.06078003 25.11825706 -32.30882898 23.36174451 -30.55664062 21.60546875 C-27.34598081 18.38667613 -24.13662907 15.16659232 -20.92895508 11.94482422 C-20.24402985 11.25910339 -19.55910461 10.57338257 -18.85342407 9.86688232 C-17.72190159 8.72714352 -16.59704056 7.58067685 -15.48422241 6.42266846 C-10.83769046 1.61105903 -6.70336788 0 0 0 Z " fill="#9C9B9B" transform="translate(174,37)"/>
<path d="M0 0 C12.33908005 1.98306644 20.30177037 10.8188148 28.73242188 19.34130859 C30.51363616 21.13876047 32.31053636 22.91942319 34.109375 24.69921875 C35.25096444 25.84278804 36.39162432 26.98728621 37.53125 28.1328125 C38.33423523 28.92668869 38.33423523 28.92668869 39.15344238 29.73660278 C44.02413457 34.70102355 44.02413457 34.70102355 44 38 C42.92016602 39.64746094 42.92016602 39.64746094 41.25390625 41.234375 C40.66416016 41.80800781 40.07441406 42.38164063 39.46679688 42.97265625 C38.52416992 43.85244141 38.52416992 43.85244141 37.5625 44.75 C36.93794922 45.35199219 36.31339844 45.95398438 35.66992188 46.57421875 C34.12421404 48.0609301 32.5634768 49.5319865 31 51 C27.56404834 49.47291037 24.88087546 47.40072955 22 45 C21.98018066 46.01312256 21.96036133 47.02624512 21.93994141 48.07006836 C21.86326389 51.86668719 21.7746481 55.66295341 21.68261719 59.45922852 C21.644582 61.09522486 21.60968712 62.73129761 21.578125 64.36743164 C21.11978553 87.83584463 21.11978553 87.83584463 13.16015625 96.11328125 C9.01789777 99.73120322 5.57961937 101 0 101 C-1.046179 95.85513453 -1.14174786 90.92868919 -1.12939453 85.70581055 C-1.13114685 84.78970505 -1.13289917 83.87359955 -1.13470459 82.92973328 C-1.13909014 79.91537559 -1.13619795 76.90107699 -1.1328125 73.88671875 C-1.13348619 71.79018645 -1.13445677 69.69365423 -1.13571167 67.59712219 C-1.13718392 63.21179457 -1.13504816 58.82648736 -1.13037109 54.44116211 C-1.12465647 48.80725588 -1.12796673 43.17339712 -1.13394356 37.53949261 C-1.13754691 33.21510964 -1.13641194 28.89073805 -1.13381577 24.56635475 C-1.13314678 22.48782152 -1.13397394 20.40928727 -1.13629532 18.33075523 C-1.13882003 15.43621431 -1.13498464 12.54175184 -1.12939453 9.6472168 C-1.13141876 8.78126892 -1.13344299 7.91532104 -1.13552856 7.02313232 C-1.11426614 1.11426614 -1.11426614 1.11426614 0 0 Z " fill="#A4A4A4" transform="translate(75,36)"/>
<path d="M0 0 C0 1.65 0 3.3 0 5 C-2.31 5.33 -4.62 5.66 -7 6 C-7.33 6.99 -7.66 7.98 -8 9 C-11 11 -11 11 -14 11 C-13.67 13.31 -13.34 15.62 -13 18 C-13.928125 17.814375 -14.85625 17.62875 -15.8125 17.4375 C-19.01343771 16.75876119 -19.01343771 16.75876119 -22 18 C-22.73323796 20.01508358 -22.73323796 20.01508358 -23 22 C-24.32 22 -25.64 22 -27 22 C-27 19 -27 19 -24.76953125 16.4765625 C-23.79134265 15.51833693 -22.80529119 14.56808791 -21.8125 13.625 C-21.08836914 12.92117187 -21.08836914 12.92117187 -20.34960938 12.203125 C-19.38015426 11.26099681 -18.40691725 10.32274453 -17.42993164 9.38842773 C-16.04371929 8.04245034 -14.70059226 6.65253724 -13.359375 5.26171875 C-9.36707138 1.43465948 -5.48315847 0 0 0 Z M-17 15 C-16 17 -16 17 -16 17 Z " fill="#CCCCCC" transform="translate(173,37)"/>
<path d="M0 0 C5.06357773 1.49605706 8.28961152 3.28961152 12 7 C11.67 7.66 11.34 8.32 11 9 C11.66 9 12.32 9 13 9 C13.33 7.68 13.66 6.36 14 5 C15.32 4.67 16.64 4.34 18 4 C18 4.99 18 5.98 18 7 C19.65 7 21.3 7 23 7 C22.57847656 7.48210937 22.15695313 7.96421875 21.72265625 8.4609375 C21.17480469 9.09257813 20.62695312 9.72421875 20.0625 10.375 C19.24458984 11.31472656 19.24458984 11.31472656 18.41015625 12.2734375 C16.93041376 13.95632334 16.93041376 13.95632334 16 16 C11.04697782 15.61063994 8.49644957 13.10247733 5.1875 9.6875 C4.68541016 9.20087891 4.18332031 8.71425781 3.66601562 8.21289062 C0.67450381 5.18881813 0 4.43001812 0 0 Z " fill="#888887" transform="translate(111,90)"/>
<path d="M0 0 C0.99 0.33 1.98 0.66 3 1 C2.34 1 1.68 1 1 1 C1 1.66 1 2.32 1 3 C-0.53125 4.5078125 -0.53125 4.5078125 -2.5 6.125 C-3.1496875 6.66382812 -3.799375 7.20265625 -4.46875 7.7578125 C-4.9740625 8.16773437 -5.479375 8.57765625 -6 9 C-5.67 9.66 -5.34 10.32 -5 11 C-6.32 11 -7.64 11 -9 11 C-9.33 11.66 -9.66 12.32 -10 13 C-10.66 13 -11.32 13 -12 13 C-12.680625 13.37125 -13.36125 13.7425 -14.0625 14.125 C-17.79216788 15.2359649 -20.12947868 14.51740445 -23.81640625 13.5078125 C-26.27569465 12.848991 -26.27569465 12.848991 -30 13 C-30 11.35 -30 9.7 -30 8 C-28.865625 8.515625 -27.73125 9.03125 -26.5625 9.5625 C-21.84233976 11.32000647 -17.84399622 11.37076757 -13 10 C-10.08337663 8.16125918 -8.38242115 6.52950621 -6.375 3.75 C-5.92125 3.1725 -5.4675 2.595 -5 2 C-4.01 2 -3.02 2 -2 2 C-1.34 1.34 -0.68 0.68 0 0 Z " fill="#291D37" transform="translate(53,105)"/>
<path d="M0 0 C0.33 0 0.66 0 1 0 C1.33 5.28 1.66 10.56 2 16 C2.99 16 3.98 16 5 16 C5 16.66 5 17.32 5 18 C4.01 18.33 3.02 18.66 2 19 C2 19.99 2 20.98 2 22 C2.66 21.67 3.32 21.34 4 21 C4.33 24.3 4.66 27.6 5 31 C4.01 31 3.02 31 2 31 C2.185625 32.134375 2.37125 33.26875 2.5625 34.4375 C2.706875 35.613125 2.85125 36.78875 3 38 C2.505 38.495 2.505 38.495 2 39 C2.66 39.66 3.32 40.32 4 41 C2.68 41 1.36 41 0 41 C-0.98035441 36.20055451 -1.05812873 31.6277637 -0.87890625 26.7578125 C-0.85529526 25.98944061 -0.83168427 25.22106873 -0.80735779 24.42941284 C-0.73127024 21.99439439 -0.6470128 19.55973912 -0.5625 17.125 C-0.5092242 15.46616313 -0.45648425 13.80730897 -0.40429688 12.1484375 C-0.27573028 8.09873183 -0.13983987 4.04933143 0 0 Z " fill="#656565" transform="translate(75,96)"/>
<path d="M0 0 C0.33 0 0.66 0 1 0 C1.11761144 3.95807715 1.18771882 7.91569621 1.25 11.875 C1.28351563 12.98359375 1.31703125 14.0921875 1.3515625 15.234375 C1.46006627 24.45719525 -0.26918103 32.21973224 -6.125 39.5625 C-6.87136719 40.52349609 -6.87136719 40.52349609 -7.6328125 41.50390625 C-9 43 -9 43 -11 44 C-10.67 41.69 -10.34 39.38 -10 37 C-7.525 36.505 -7.525 36.505 -5 36 C-4.86722656 35.07316406 -4.73445313 34.14632812 -4.59765625 33.19140625 C-4.33275391 31.39509766 -4.33275391 31.39509766 -4.0625 29.5625 C-3.88847656 28.36753906 -3.71445313 27.17257813 -3.53515625 25.94140625 C-3 23 -3 23 -2 22 C-1.7866919 19.81655463 -1.63005194 17.62748185 -1.5 15.4375 C-1.16637456 10.25306654 -0.72010616 5.14361543 0 0 Z " fill="#362C43" transform="translate(68,83)"/>
<path d="M0 0 C9.71529146 2.42882286 16.28803851 10.00837345 23 17 C22.01 17.33 21.02 17.66 20 18 C17.33333333 15.33333333 14.66666667 12.66666667 12 10 C11.34 10.66 10.68 11.32 10 12 C9.67 11.34 9.34 10.68 9 10 C8.01 10 7.02 10 6 10 C6 9.34 6 8.68 6 8 C5.01 8 4.02 8 3 8 C0.89229241 5.11165997 0 3.61537605 0 0 Z " fill="#CACACA" transform="translate(79,37)"/>
<path d="M0 0 C6.27 0 12.54 0 19 0 C18.01 0.99 17.02 1.98 16 3 C14.3247643 2.71281674 12.65919896 2.36871088 11 2 C8.36 2.33 5.72 2.66 3 3 C3 8.61 3 14.22 3 20 C2.01 20 1.02 20 0 20 C-1.13902093 15.65484608 -0.93025974 11.61173186 -0.5625 7.1875 C-0.376875 4.815625 -0.19125 2.44375 0 0 Z " fill="#4F4567" transform="translate(27,37)"/>
<path d="M0 0 C-8.79207483 7.69306548 -17.50652084 9.70502083 -29 9 C-31.46108576 8.51286599 -33.62895891 7.84303683 -36 7 C-36 6.67 -36 6.34 -36 6 C-29.07 6 -22.14 6 -15 6 C-14.67 5.34 -14.34 4.68 -14 4 C-12.68 4.33 -11.36 4.66 -10 5 C-9.690625 4.071875 -9.690625 4.071875 -9.375 3.125 C-7.25535372 -0.15081698 -3.63044833 -1.81522417 0 0 Z " fill="#1F1428" transform="translate(57,128)"/>
<path d="M0 0 C0.99 0.33 1.98 0.66 3 1 C3.33 3.64 3.66 6.28 4 9 C2.6078125 8.7215625 2.6078125 8.7215625 1.1875 8.4375 C-2.01343771 7.75876119 -2.01343771 7.75876119 -5 9 C-5.73323796 11.01508358 -5.73323796 11.01508358 -6 13 C-7.32 13 -8.64 13 -10 13 C-10 10 -10 10 -7.8125 7.51953125 C-6.884375 6.62621094 -5.95625 5.73289062 -5 4.8125 C-4.071875 3.91144531 -3.14375 3.01039062 -2.1875 2.08203125 C-1.1046875 1.05142578 -1.1046875 1.05142578 0 0 Z M0 6 C1 8 1 8 1 8 Z " fill="#C4C4C4" transform="translate(156,46)"/>
<path d="M0 0 C0.33 0 0.66 0 1 0 C1.05859908 4.31244188 1.09379686 8.62477974 1.125 12.9375 C1.14175781 14.14986328 1.15851563 15.36222656 1.17578125 16.61132812 C1.27044908 34.07754201 1.27044908 34.07754201 -3.625 39.0625 C-4.40875 39.701875 -5.1925 40.34125 -6 41 C-6 40.01 -6 39.02 -6 38 C-5.34 38 -4.68 38 -4 38 C-4.495 36.515 -4.495 36.515 -5 35 C-4.505 34.505 -4.505 34.505 -4 34 C-4.66 33.34 -5.32 32.68 -6 32 C-5.01 32 -4.02 32 -3 32 C-3 31.01 -3 30.02 -3 29 C-2.51781006 28.09846191 -2.51781006 28.09846191 -2.02587891 27.17871094 C-0.72209419 24.40979738 -0.67942639 22.19459532 -0.5859375 19.140625 C-0.52792969 17.46806641 -0.52792969 17.46806641 -0.46875 15.76171875 C-0.4378125 14.60285156 -0.406875 13.44398437 -0.375 12.25 C-0.33632812 11.07566406 -0.29765625 9.90132812 -0.2578125 8.69140625 C-0.1636018 5.79442732 -0.07798398 2.89745374 0 0 Z " fill="#7D7D7D" transform="translate(95,89)"/>
<path d="M0 0 C0.99 0.33 1.98 0.66 3 1 C2.67 1.66 2.34 2.32 2 3 C1.915085 4.8863912 1.892807 6.77578515 1.90234375 8.6640625 C1.90556641 9.78554688 1.90878906 10.90703125 1.91210938 12.0625 C1.92048828 13.238125 1.92886719 14.41375 1.9375 15.625 C1.94201172 16.80835937 1.94652344 17.99171875 1.95117188 19.2109375 C1.96298533 22.14067507 1.97945742 25.07031272 2 28 C1.01 28 0.02 28 -1 28 C-1.02886338 23.52084672 -1.04675187 19.04171709 -1.0625 14.5625 C-1.07087891 13.28310547 -1.07925781 12.00371094 -1.08789062 10.68554688 C-1.09111328 9.47060547 -1.09433594 8.25566406 -1.09765625 7.00390625 C-1.10289307 5.87799072 -1.10812988 4.7520752 -1.11352539 3.59204102 C-1 1 -1 1 0 0 Z " fill="#B7B6BB" transform="translate(75,36)"/>
<path d="M0 0 C2.31 0 4.62 0 7 0 C6.7525 0.7425 6.505 1.485 6.25 2.25 C6.1675 3.1575 6.085 4.065 6 5 C6.639375 5.639375 7.27875 6.27875 7.9375 6.9375 C10 9 10 9 10.25 12.25 C10.1675 13.1575 10.085 14.065 10 15 C5.04218483 10.17617983 1.97596585 6.68788443 0 0 Z " fill="#271B36" transform="translate(0,112)"/>
<path d="M0 0 C2.93902349 -0.13481759 5.87189559 -0.23399416 8.8125 -0.3125 C10.06256836 -0.3753418 10.06256836 -0.3753418 11.33789062 -0.43945312 C13.65851795 -0.48605207 15.7269737 -0.47548292 18 0 C20.10715614 2.43255501 21 3.77575232 21 7 C20.34 7 19.68 7 19 7 C18.67 5.68 18.34 4.36 18 3 C15.75006641 2.97292861 13.50003905 2.95357171 11.25 2.9375 C9.37054687 2.92009766 9.37054687 2.92009766 7.453125 2.90234375 C4.71463499 2.97978973 2.58119707 3.17219185 0 4 C0 2.68 0 1.36 0 0 Z " fill="#2D263D" transform="translate(0,103)"/>
<path d="M0 0 C0 8.91 0 17.82 0 27 C-0.66 27.33 -1.32 27.66 -2 28 C-1.98839844 26.79601562 -1.97679688 25.59203125 -1.96484375 24.3515625 C-1.95546566 22.77604321 -1.94636548 21.20052225 -1.9375 19.625 C-1.92912109 18.8309375 -1.92074219 18.036875 -1.91210938 17.21875 C-1.76959849 12.97607778 -1.76959849 12.97607778 -3 9 C-3.33333333 7 -3.66666667 5 -4 3 C-4.33 2.34 -4.66 1.68 -5 1 C-3 0 -3 0 0 0 Z " fill="#564C6A" transform="translate(69,37)"/>
<path d="M0 0 C1.32 0.33 2.64 0.66 4 1 C4 1.66 4 2.32 4 3 C4.66 3 5.32 3 6 3 C6.33 2.01 6.66 1.02 7 0 C8.0625 2.375 8.0625 2.375 9 5 C8.67 5.66 8.34 6.32 8 7 C8.99 7.33 9.98 7.66 11 8 C9.02 8.99 9.02 8.99 7 10 C5.82739389 8.71372289 4.6620717 7.42080217 3.5 6.125 C2.8503125 5.40570313 2.200625 4.68640625 1.53125 3.9453125 C0 2 0 2 0 0 Z " fill="#6E6E6E" transform="translate(156,124)"/>
<path d="M0 0 C1.32 0.33 2.64 0.66 4 1 C3.01 1.495 3.01 1.495 2 2 C2.33 2.99 2.66 3.98 3 5 C3 6.32 3 7.64 3 9 C-1.99275057 7.72278474 -4.57611908 5.82669043 -8 2 C-2.25 2.875 -2.25 2.875 0 4 C0 2.68 0 1.36 0 0 Z " fill="#261934" transform="translate(18,125)"/>
<path d="M0 0 C0.66 0.33 1.32 0.66 2 1 C-0.43201286 7.30892748 -3.29951853 12.12716754 -8 17 C-9 14 -9 14 -8.3125 11.875 C-7 10 -7 10 -4.875 9.25 C-3.946875 9.12625 -3.946875 9.12625 -3 9 C-2.87625 7.700625 -2.7525 6.40125 -2.625 5.0625 C-2.4140625 2.84765625 -2.4140625 2.84765625 -2 1 C-1.34 0.67 -0.68 0.34 0 0 Z " fill="#2A1D35" transform="translate(66,110)"/>
<path d="M0 0 C0.33 0 0.66 0 1 0 C1.33 5.28 1.66 10.56 2 16 C2.99 16 3.98 16 5 16 C5 16.66 5 17.32 5 18 C4.01 18.33 3.02 18.66 2 19 C2 19.99 2 20.98 2 22 C2.66 21.67 3.32 21.34 4 21 C3.625 22.9375 3.625 22.9375 3 25 C2.34 25.33 1.68 25.66 1 26 C-1 24 -1 24 -1.13525391 21.56982422 C-1.08288574 20.5748291 -1.03051758 19.57983398 -0.9765625 18.5546875 C-0.925 17.47832031 -0.8734375 16.40195313 -0.8203125 15.29296875 C-0.75585938 14.16503906 -0.69140625 13.03710938 -0.625 11.875 C-0.56828125 10.73933594 -0.5115625 9.60367188 -0.453125 8.43359375 C-0.31135306 5.6217837 -0.15991439 2.81082719 0 0 Z " fill="#7F7F80" transform="translate(75,96)"/>
<path d="M0 0 C0.99 0.99 1.98 1.98 3 3 C2.34 4.32 1.68 5.64 1 7 C1.66 7.33 2.32 7.66 3 8 C3 8.66 3 9.32 3 10 C-0.52069985 9.41321669 -2.71299843 8.64350079 -6 7 C-4.02 4.69 -2.04 2.38 0 0 Z " fill="#B6B6B6" transform="translate(142,60)"/>
<path d="M0 0 C-3.46071755 2.9517885 -6.76756692 5.28901641 -11 7 C-13.375 6.6875 -13.375 6.6875 -15 6 C-14.67 5.34 -14.34 4.68 -14 4 C-12.02 4.495 -12.02 4.495 -10 5 C-9.79375 4.38125 -9.5875 3.7625 -9.375 3.125 C-7.25535372 -0.15081698 -3.63044833 -1.81522417 0 0 Z " fill="#251933" transform="translate(57,128)"/>
<path d="M0 0 C0.99 0 1.98 0 3 0 C3.33 0.99 3.66 1.98 4 3 C0.12435233 6.61139896 0.12435233 6.61139896 -2 8 C-4.375 7.8125 -4.375 7.8125 -6 7 C-5.1875 5.0625 -5.1875 5.0625 -4 3 C-3.01 2.67 -2.02 2.34 -1 2 C-0.67 1.34 -0.34 0.68 0 0 Z " fill="#6A6A6A" transform="translate(85,128)"/>
<path d="M0 0 C0 0.99 0 1.98 0 3 C-5.34883721 8 -5.34883721 8 -8 8 C-7.74438677 5.6568787 -7.40729228 3.32156597 -7 1 C-4.53721199 -0.231394 -2.7204945 -0.07159196 0 0 Z " fill="#929292" transform="translate(141,88)"/>
<path d="M0 0 C0.33 0.66 0.66 1.32 1 2 C0.06553465 4.03144641 -0.93224776 6.03533587 -2 8 C-2.99 8 -3.98 8 -5 8 C-5 5 -5 5 -2.5 2.3125 C-1.675 1.549375 -0.85 0.78625 0 0 Z M-7 7 C-6.67 7.99 -6.34 8.98 -6 10 C-7.32 10.99 -8.64 11.98 -10 13 C-9.42655063 10.13275314 -9.1385485 9.1385485 -7 7 Z " fill="#ADADAD" transform="translate(135,67)"/>
<path d="M0 0 C1.65 0 3.3 0 5 0 C4.1875 2.4375 4.1875 2.4375 3 5 C2.01 5.33 1.02 5.66 0 6 C-1.20882096 8.00016466 -1.20882096 8.00016466 -2 10 C-2.66 8.68 -3.32 7.36 -4 6 C-3.34 5.67 -2.68 5.34 -2 5 C-1.27840576 3.35636866 -0.60648579 1.68949614 0 0 Z " fill="#949494" transform="translate(120,84)"/>
<path d="M0 0 C0.99 0.33 1.98 0.66 3 1 C2.67 1.66 2.34 2.32 2 3 C1.77141886 5.0374763 1.58975722 7.08040303 1.4375 9.125 C1.35371094 10.22070312 1.26992187 11.31640625 1.18359375 12.4453125 C1.12300781 13.28835937 1.06242187 14.13140625 1 15 C-0.87592203 11.81908874 -1.24719681 9.48656709 -1.1875 5.8125 C-1.18105469 4.93207031 -1.17460938 4.05164062 -1.16796875 3.14453125 C-1 1 -1 1 0 0 Z " fill="#C7C7C8" transform="translate(75,36)"/>
<path d="M0 0 C0.66 1.32 1.32 2.64 2 4 C-0.3125 5.5625 -0.3125 5.5625 -3 7 C-3.99 6.67 -4.98 6.34 -6 6 C-6 5.01 -6 4.02 -6 3 C-5.38125 2.87625 -4.7625 2.7525 -4.125 2.625 C-1.80879168 2.12802644 -1.80879168 2.12802644 0 0 Z " fill="#B0B0B0" transform="translate(117,70)"/>
<path d="M0 0 C0 1.65 0 3.3 0 5 C-1.98 5.99 -1.98 5.99 -4 7 C-4.66 6.01 -5.32 5.02 -6 4 C-2.25 0 -2.25 0 0 0 Z " fill="#BEBEBE" transform="translate(151,53)"/>
<path d="M0 0 C0.99 0.33 1.98 0.66 3 1 C-0.07999946 4.67230705 -2.2482602 5.56802365 -7 6 C-2.25 1.125 -2.25 1.125 0 0 Z " fill="#C5C5C5" transform="translate(166,38)"/>
<path d="M0 0 C-1.20842856 4.43090471 -2.51668565 6.98112756 -6 10 C-6 9.01 -6 8.02 -6 7 C-5.34 7 -4.68 7 -4 7 C-4.33 6.01 -4.66 5.02 -5 4 C-4.67 3.67 -4.34 3.34 -4 3 C-4.66 2.34 -5.32 1.68 -6 1 C-3.92446352 0.4465236 -2.15634036 0 0 0 Z " fill="#666666" transform="translate(95,120)"/>
<path d="M0 0 C0.33 0.99 0.66 1.98 1 3 C1.66 3 2.32 3 3 3 C2.34 4.32 1.68 5.64 1 7 C0.01 6.67 -0.98 6.34 -2 6 C-2 5.34 -2 4.68 -2 4 C-2.66 4 -3.32 4 -4 4 C-3.67 3.01 -3.34 2.02 -3 1 C-2.01 0.67 -1.02 0.34 0 0 Z " fill="#8C8C8B" transform="translate(128,94)"/>
<path d="M0 0 C0.99 0.33 1.98 0.66 3 1 C2.34 1 1.68 1 1 1 C1 1.66 1 2.32 1 3 C-0.95927063 4.7143618 -2.95880212 6.38405168 -5 8 C-5.33 6.02 -5.66 4.04 -6 2 C-5.01 2.33 -4.02 2.66 -3 3 C-2.01 2.01 -1.02 1.02 0 0 Z " fill="#322445" transform="translate(53,105)"/>
<path d="M0 0 C2.3125 -0.3125 2.3125 -0.3125 5 0 C6.81883009 2.3832946 8 3.95818337 8 7 C7.34 7 6.68 7 6 7 C5.67 5.68 5.34 4.36 5 3 C4.34 3 3.68 3 3 3 C3 2.34 3 1.68 3 1 C2.01 0.67 1.02 0.34 0 0 Z " fill="#271D32" transform="translate(13,103)"/>
<path d="M0 0 C0.66 0 1.32 0 2 0 C2 1.98 2 3.96 2 6 C0.68 6 -0.64 6 -2 6 C-1.125 1.125 -1.125 1.125 0 0 Z " fill="#777577" transform="translate(78,121)"/>
<path d="M0 0 C0.66 0.33 1.32 0.66 2 1 C-0.75 7.875 -0.75 7.875 -3 9 C-2.4140625 2.84765625 -2.4140625 2.84765625 -2 1 C-1.34 0.67 -0.68 0.34 0 0 Z " fill="#2D253B" transform="translate(66,110)"/>
<path d="M0 0 C0.33 0 0.66 0 1 0 C1.33 1.65 1.66 3.3 2 5 C2.66 4.67 3.32 4.34 4 4 C3.625 5.9375 3.625 5.9375 3 8 C2.01 8.495 2.01 8.495 1 9 C0.34 8.34 -0.32 7.68 -1 7 C-0.625 3.375 -0.625 3.375 0 0 Z " fill="#78777A" transform="translate(75,113)"/>
<path d="M0 0 C2.31 0 4.62 0 7 0 C6.34 1.32 5.68 2.64 5 4 C3.0625 3.6875 3.0625 3.6875 1 3 C0.67 2.01 0.34 1.02 0 0 Z " fill="#2E2141" transform="translate(0,112)"/>
<path d="M0 0 C1.98 0.66 3.96 1.32 6 2 C6 2.99 6 3.98 6 5 C3.69 4.34 1.38 3.68 -1 3 C-0.67 2.01 -0.34 1.02 0 0 Z " fill="#D2D2D3" transform="translate(79,37)"/>
<path d="" fill="#FF0000" transform="translate(0,0)"/>
<path d="" fill="#000000" transform="translate(0,0)"/>
<path d="" fill="#000000" transform="translate(0,0)"/>
<path d="" fill="#000000" transform="translate(0,0)"/>
<path d="" fill="#000000" transform="translate(0,0)"/>
<path d="" fill="#000000" transform="translate(0,0)"/>
<path d="" fill="#000000" transform="translate(0,0)"/>
<path d="" fill="#000000" transform="translate(0,0)"/>
<path d="" fill="#000000" transform="translate(0,0)"/>
<path d="" fill="#000000" transform="translate(0,0)"/>
<path d="" fill="#000000" transform="translate(0,0)"/>
<path d="" fill="#000000" transform="translate(0,0)"/>
<path d="" fill="#000000" transform="translate(0,0)"/>
<path d="" fill="#000000" transform="translate(0,0)"/>
<path d="" fill="#000000" transform="translate(0,0)"/>
<path d="" fill="#000000" transform="translate(0,0)"/>
<path d="" fill="#000000" transform="translate(0,0)"/>
<path d="" fill="#000000" transform="translate(0,0)"/>
<path d="" fill="#000000" transform="translate(0,0)"/>
<path d="" fill="#000000" transform="translate(0,0)"/>
<path d="" fill="#000000" transform="translate(0,0)"/>
<path d="" fill="#000000" transform="translate(0,0)"/>
<path d="" fill="#000000" transform="translate(0,0)"/>
<path d="" fill="#000000" transform="translate(0,0)"/>
<path d="" fill="#000000" transform="translate(0,0)"/>
<path d="" fill="#000000" transform="translate(0,0)"/>
<path d="" fill="#000000" transform="translate(0,0)"/>
<path d="" fill="#000000" transform="translate(0,0)"/>
<path d="" fill="#000000" transform="translate(0,0)"/>
<path d="" fill="#000000" transform="translate(0,0)"/>
<path d="" fill="#000000" transform="translate(0,0)"/>
<path d="" fill="#000000" transform="translate(0,0)"/>
<path d="" fill="#000000" transform="translate(0,0)"/>
<path d="" fill="#000000" transform="translate(0,0)"/>
<path d="" fill="#000000" transform="translate(0,0)"/>
<path d="" fill="#000000" transform="translate(0,0)"/>
<path d="" fill="#000000" transform="translate(0,0)"/>
<path d="" fill="#000000" transform="translate(0,0)"/>
<path d="" fill="#000000" transform="translate(0,0)"/>
<path d="" fill="#000000" transform="translate(0,0)"/>
<path d="" fill="#000000" transform="translate(0,0)"/>
<path d="" fill="#000000" transform="translate(0,0)"/>
<path d="" fill="#000000" transform="translate(0,0)"/>
<path d="" fill="#000000" transform="translate(0,0)"/>
<path d="" fill="#000000" transform="translate(0,0)"/>
<path d="" fill="#000000" transform="translate(0,0)"/>
<path d="" fill="#000000" transform="translate(0,0)"/>
<path d="" fill="#000000" transform="translate(0,0)"/>
<path d="" fill="#000000" transform="translate(0,0)"/>
<path d="" fill="#000000" transform="translate(0,0)"/>
<path d="" fill="#000000" transform="translate(0,0)"/>
<path d="" fill="#000000" transform="translate(0,0)"/>
<path d="" fill="#000000" transform="translate(0,0)"/>
<path d="" fill="#000000" transform="translate(0,0)"/>
<path d="" fill="#000000" transform="translate(0,0)"/>
<path d="" fill="#000000" transform="translate(0,0)"/>
<path d="" fill="#000000" transform="translate(0,0)"/>
<path d="" fill="#000000" transform="translate(0,0)"/>
<path d="" fill="#000000" transform="translate(0,0)"/>
<path d="" fill="#000000" transform="translate(0,0)"/>
</svg>
